<svg width="1440" height="198" viewBox="0 0 1440 198" fill="none" xmlns="http://www.w3.org/2000/svg">
<g filter="url(#filter0_d_20_383)">
<path d="M-5.49866 47.2885L-30 32V261.687H-5.49866H117.008H264.016H411.024H558.032H705.04H852.048H999.056H1146.06H1293.07H1415.58L1464.42 262H1586.93H1733.94H1880.94H2027.95H2174.96H2321.97H2468.98H2615.98H2762.99H2885.5H2910V32.3129L2885.5 47.6015C2861 63.1771 2811.99 93.3236 2762.99 101.219C2713.99 109.115 2664.99 93.3236 2615.98 93.5389C2566.98 93.3236 2517.98 109.115 2468.98 108.899C2419.97 109.115 2370.97 93.3236 2321.97 105.023C2272.97 116.292 2223.96 155.052 2174.96 170.125C2125.96 185.198 2076.95 178.021 2027.95 173.929C1978.95 170.125 1929.95 170.125 1880.94 154.837C1831.94 139.261 1782.94 109.115 1733.94 101.219C1684.93 93.3236 1635.93 109.115 1586.93 112.703C1537.92 116.292 1488.92 109.115 1464.42 105.023L1451.44 102.827C1443.91 101.555 1436.24 101.503 1428.7 102.673L1415.58 104.71C1391.08 108.802 1342.08 115.979 1293.07 112.39C1244.07 108.802 1195.07 93.0106 1146.06 100.906C1097.06 108.802 1048.06 138.948 999.056 154.524C950.054 169.812 901.051 169.812 852.048 173.616C803.046 177.708 754.043 184.885 705.04 169.812C656.038 154.739 607.035 115.979 558.032 104.71C509.03 93.0106 460.027 108.802 411.024 108.586C362.021 108.802 313.019 93.0106 264.016 93.226C215.013 93.0106 166.011 108.802 117.008 100.906C68.0054 93.0106 19.0027 62.8642 -5.49866 47.2885Z" fill="#7A0BC0"/>
</g>
<defs>
<filter id="filter0_d_20_383" x="-50" y="0" width="2980" height="270" filterUnits="userSpaceOnUse" color-interpolation-filters="sRGB">
<feFlood flood-opacity="0" result="BackgroundImageFix"/>
<feColorMatrix in="SourceAlpha" type="matrix" values="0 0 0 0 0 0 0 0 0 0 0 0 0 0 0 0 0 0 127 0" result="hardAlpha"/>
<feOffset dy="-12"/>
<feGaussianBlur stdDeviation="10"/>
<feComposite in2="hardAlpha" operator="out"/>
<feColorMatrix type="matrix" values="0 0 0 0 0 0 0 0 0 0 0 0 0 0 0 0 0 0 0.25 0"/>
<feBlend mode="normal" in2="BackgroundImageFix" result="effect1_dropShadow_20_383"/>
<feBlend mode="normal" in="SourceGraphic" in2="effect1_dropShadow_20_383" result="shape"/>
</filter>
</defs>
</svg>
