<svg width="1441" height="222" viewBox="0 0 1441 222" fill="none" xmlns="http://www.w3.org/2000/svg">
<g filter="url(#filter0_d_20_647)">
<path d="M-23 42.3069L-11.0099 46.5499C-3.23938 49.2998 5.23938 49.2998 13.0099 46.5499L25 42.3069C49 34.1312 97 16.6688 145 25.4C193 34.1312 241 67.4687 289 97.3931C337 127 385 152.4 433 169.307C481 186.531 529 194.469 577 186.293C625 177.8 673 152.4 721 143.907C769 135.731 817 143.669 865 135.493C913 127 961 101.6 1009 93.1069C1057 84.9312 1105 92.8688 1153 101.6C1201 110.331 1249 118.269 1297 118.507C1345 118.269 1393 110.331 1417 105.807L1441 101.6V0H1417H1297H1153H1009H865H721H577H433H289H145H25H-23H-143H-287H-431H-575H-719H-863H-1007H-1151H-1295H-1415H-1439V101.6L-1415 105.807C-1391 110.331 -1343 118.269 -1295 118.507C-1247 118.269 -1199 110.331 -1151 101.6C-1103 92.8688 -1055 84.9312 -1007 93.1069C-959 101.6 -911 127 -863 135.493C-815 143.669 -767 135.731 -719 143.907C-671 152.4 -623 177.8 -575 186.293C-527 194.469 -479 186.531 -431 169.307C-383 152.4 -335 127 -287 97.3931C-239 67.4687 -191 34.1312 -143 25.4C-95 16.6688 -47 34.1312 -23 42.3069Z" fill="#7A0BC0"/>
</g>
<defs>
<filter id="filter0_d_20_647" x="-1459" y="-8" width="2920" height="229.526" filterUnits="userSpaceOnUse" color-interpolation-filters="sRGB">
<feFlood flood-opacity="0" result="BackgroundImageFix"/>
<feColorMatrix in="SourceAlpha" type="matrix" values="0 0 0 0 0 0 0 0 0 0 0 0 0 0 0 0 0 0 127 0" result="hardAlpha"/>
<feOffset dy="12"/>
<feGaussianBlur stdDeviation="10"/>
<feComposite in2="hardAlpha" operator="out"/>
<feColorMatrix type="matrix" values="0 0 0 0 0 0 0 0 0 0 0 0 0 0 0 0 0 0 0.25 0"/>
<feBlend mode="normal" in2="BackgroundImageFix" result="effect1_dropShadow_20_647"/>
<feBlend mode="normal" in="SourceGraphic" in2="effect1_dropShadow_20_647" result="shape"/>
</filter>
</defs>
</svg>
