<svg width="384" height="384" viewBox="0 0 384 384" fill="none" xmlns="http://www.w3.org/2000/svg">
<g filter="url(#filter0_d_24_2958)">
<path d="M347.858 176.421C350.813 205.995 345.291 235.799 331.939 262.352L303.954 248.279C314.635 227.037 319.052 203.194 316.689 179.535L347.858 176.421Z" fill="#E105E6"/>
<path d="M301.46 79.9551C322.72 100.724 337.631 127.114 344.453 156.041L313.965 163.231C308.507 140.089 296.578 118.977 279.57 102.362L301.46 79.9551Z" fill="#E105E6"/>
<path d="M203.792 35.8104C233.429 38.0459 261.818 48.6678 285.643 66.4354L266.917 91.5462C247.856 77.3321 225.145 68.8346 201.436 67.0462L203.792 35.8104Z" fill="#E105E6"/>
<path d="M100.81 64.6591C124.973 47.3526 153.561 37.2783 183.235 35.6129L184.99 66.8882C161.251 68.2206 138.38 76.28 119.05 90.1252L100.81 64.6591Z" fill="#E105E5"/>
<path d="M40.3021 153.067C47.6881 124.278 63.1129 98.1855 84.7748 77.8361L106.222 100.667C88.8926 116.946 76.5528 137.82 70.644 160.851L40.3021 153.067Z" fill="#E105E5"/>
<path d="M50.8214 259.784C37.9567 232.991 32.9807 203.092 36.4747 173.577L67.5821 177.259C64.7869 200.871 68.7676 224.791 79.0594 246.225L50.8214 259.784Z" fill="#E105E5"/>
<path d="M127.417 334.672C100.341 322.414 77.3122 302.706 61.0195 277.849L87.2179 260.677C100.252 280.563 118.675 296.329 140.336 306.135L127.417 334.672Z" fill="#E105E5"/>
<path d="M234.274 342.802C205.656 350.822 175.346 350.534 146.886 341.971L155.911 311.974C178.679 318.825 202.927 319.056 225.822 312.64L234.274 342.802Z" fill="#E105E5"/>
<path d="M321.369 280.291C304.613 304.838 281.218 324.111 253.917 335.859L241.536 307.085C263.377 297.687 282.093 282.269 295.498 262.631L321.369 280.291Z" fill="#E105E5"/>
</g>
<defs>
<filter id="filter0_d_24_2958" x="0.611431" y="0.835613" width="382.801" height="382.554" filterUnits="userSpaceOnUse" color-interpolation-filters="sRGB">
<feFlood flood-opacity="0" result="BackgroundImageFix"/>
<feColorMatrix in="SourceAlpha" type="matrix" values="0 0 0 0 0 0 0 0 0 0 0 0 0 0 0 0 0 0 127 0" result="hardAlpha"/>
<feOffset/>
<feGaussianBlur stdDeviation="17.3886"/>
<feComposite in2="hardAlpha" operator="out"/>
<feColorMatrix type="matrix" values="0 0 0 0 0.478431 0 0 0 0 0.0431373 0 0 0 0 0.752941 0 0 0 0.6 0"/>
<feBlend mode="normal" in2="BackgroundImageFix" result="effect1_dropShadow_24_2958"/>
<feBlend mode="normal" in="SourceGraphic" in2="effect1_dropShadow_24_2958" result="shape"/>
</filter>
</defs>
</svg>
