<svg width="384" height="384" viewBox="0 0 384 384" fill="none" xmlns="http://www.w3.org/2000/svg">
<g filter="url(#filter0_d_20_1193)">
<path d="M347.47 176.054C350.424 205.628 344.903 235.432 331.551 261.985L303.565 247.912C314.247 226.67 318.664 202.827 316.3 179.168L347.47 176.054Z" fill="#7A0BC0"/>
<path d="M301.071 79.5884C322.331 100.357 337.243 126.747 344.064 155.674L313.576 162.864C308.119 139.722 296.189 118.611 279.182 101.995L301.071 79.5884Z" fill="#7A0BC0"/>
<path d="M203.403 35.4437C233.04 37.6792 261.429 48.301 285.254 66.0687L266.528 91.1795C247.468 76.9654 224.757 68.4679 201.047 66.6795L203.403 35.4437Z" fill="#7A0BC0"/>
<path d="M100.422 64.2923C124.584 46.9859 153.172 36.9116 182.846 35.2461L184.601 66.5214C160.862 67.8538 137.992 75.9132 118.662 89.7584L100.422 64.2923Z" fill="white"/>
<path d="M39.9134 152.7C47.2995 123.911 62.7242 97.8187 84.3862 77.4693L105.833 100.3C88.5039 116.579 76.1641 137.454 70.2553 160.485L39.9134 152.7Z" fill="white"/>
<path d="M50.4328 259.417C37.568 232.625 32.5921 202.725 36.0861 173.21L67.1934 176.893C64.3982 200.504 68.3789 224.424 78.6707 245.858L50.4328 259.417Z" fill="white"/>
<path d="M127.028 334.305C99.9526 322.047 76.9236 302.339 60.6308 277.482L86.8292 260.31C99.8634 280.196 118.287 295.962 139.947 305.769L127.028 334.305Z" fill="white"/>
<path d="M233.886 342.436C205.267 350.455 174.958 350.167 146.497 341.604L155.522 311.608C178.291 318.458 202.538 318.689 225.433 312.273L233.886 342.436Z" fill="white"/>
<path d="M320.981 279.925C304.224 304.472 280.83 323.744 253.529 335.492L241.147 306.718C262.988 297.32 281.704 281.902 295.109 262.264L320.981 279.925Z" fill="white"/>
</g>
<defs>
<filter id="filter0_d_20_1193" x="0.222759" y="0.468853" width="382.801" height="382.554" filterUnits="userSpaceOnUse" color-interpolation-filters="sRGB">
<feFlood flood-opacity="0" result="BackgroundImageFix"/>
<feColorMatrix in="SourceAlpha" type="matrix" values="0 0 0 0 0 0 0 0 0 0 0 0 0 0 0 0 0 0 127 0" result="hardAlpha"/>
<feOffset/>
<feGaussianBlur stdDeviation="17.3886"/>
<feComposite in2="hardAlpha" operator="out"/>
<feColorMatrix type="matrix" values="0 0 0 0 0.478431 0 0 0 0 0.0431373 0 0 0 0 0.752941 0 0 0 0.6 0"/>
<feBlend mode="normal" in2="BackgroundImageFix" result="effect1_dropShadow_20_1193"/>
<feBlend mode="normal" in="SourceGraphic" in2="effect1_dropShadow_20_1193" result="shape"/>
</filter>
</defs>
</svg>
