<svg width="1441" height="198" viewBox="0 0 1441 198" fill="none" xmlns="http://www.w3.org/2000/svg">
<g filter="url(#filter0_d_20_650)">
<path d="M-1444.5 47.2885L-1469 32V261.687H-1444.5H-1321.99H-1174.98H-1027.98H-880.968H-733.96H-586.952H-439.944H-292.936H-145.928H-23.4209L25.421 262H147.928H294.936H441.944H588.952H735.96H882.968H1029.98H1176.98H1323.99H1446.5H1471V32.3129L1446.5 47.6015C1422 63.1771 1372.99 93.3236 1323.99 101.219C1274.99 109.115 1225.99 93.3236 1176.98 93.5389C1127.98 93.3236 1078.98 109.115 1029.98 108.899C980.973 109.115 931.97 93.3236 882.968 105.023C833.965 116.292 784.962 155.052 735.96 170.125C686.957 185.198 637.955 178.021 588.952 173.929C539.949 170.125 490.946 170.125 441.944 154.837C392.941 139.261 343.938 109.115 294.936 101.219C245.933 93.3236 196.93 109.115 147.928 112.703C98.9249 116.292 49.9224 109.115 25.421 105.023L12.4353 102.827C4.91467 101.555 -2.76196 101.503 -10.2992 102.673L-23.4209 104.71C-47.9222 108.802 -96.9249 115.979 -145.928 112.39C-194.93 108.802 -243.933 93.0106 -292.936 100.906C-341.938 108.802 -390.941 138.948 -439.944 154.524C-488.946 169.812 -537.949 169.812 -586.952 173.616C-635.954 177.708 -684.957 184.885 -733.96 169.812C-782.962 154.739 -831.965 115.979 -880.968 104.71C-929.97 93.0106 -978.973 108.802 -1027.98 108.586C-1076.98 108.802 -1125.98 93.0106 -1174.98 93.226C-1223.99 93.0106 -1272.99 108.802 -1321.99 100.906C-1370.99 93.0106 -1420 62.8642 -1444.5 47.2885Z" fill="#7A0BC0"/>
</g>
<defs>
<filter id="filter0_d_20_650" x="-1489" y="0" width="2980" height="270" filterUnits="userSpaceOnUse" color-interpolation-filters="sRGB">
<feFlood flood-opacity="0" result="BackgroundImageFix"/>
<feColorMatrix in="SourceAlpha" type="matrix" values="0 0 0 0 0 0 0 0 0 0 0 0 0 0 0 0 0 0 127 0" result="hardAlpha"/>
<feOffset dy="-12"/>
<feGaussianBlur stdDeviation="10"/>
<feComposite in2="hardAlpha" operator="out"/>
<feColorMatrix type="matrix" values="0 0 0 0 0 0 0 0 0 0 0 0 0 0 0 0 0 0 0.25 0"/>
<feBlend mode="normal" in2="BackgroundImageFix" result="effect1_dropShadow_20_650"/>
<feBlend mode="normal" in="SourceGraphic" in2="effect1_dropShadow_20_650" result="shape"/>
</filter>
</defs>
</svg>
